<mxfile host="Electron" agent="Mozilla/5.0 (Windows NT 10.0; Win64; x64) AppleWebKit/537.36 (KHTML, like Gecko) draw.io/27.0.9 Chrome/134.0.6998.205 Electron/35.4.0 Safari/537.36" version="27.0.9">
  <diagram name="Page-1" id="Hilu6PrRer-nVlxi_4k3">
    <mxGraphModel dx="1622" dy="464" grid="0" gridSize="10" guides="1" tooltips="1" connect="1" arrows="1" fold="1" page="1" pageScale="1" pageWidth="850" pageHeight="1100" math="0" shadow="0">
      <root>
        <mxCell id="0" />
        <mxCell id="1" parent="0" />
        <mxCell id="o3hDj38cBojk7BIsD7he-52" value="" style="ellipse;whiteSpace=wrap;html=1;fontFamily=Helvetica;fontSize=11;fontColor=default;labelBackgroundColor=default;dashed=1;dashPattern=8 8;strokeColor=#BCBCBC;" vertex="1" parent="1">
          <mxGeometry x="198" y="273" width="480" height="146.5" as="geometry" />
        </mxCell>
        <mxCell id="o3hDj38cBojk7BIsD7he-51" value="OSPF Area 10 (stub)" style="ellipse;whiteSpace=wrap;html=1;fontFamily=Helvetica;fontSize=11;fontColor=default;labelBackgroundColor=default;dashed=1;dashPattern=12 12;strokeColor=#BCBCBC;" vertex="1" parent="1">
          <mxGeometry x="116.5" y="435" width="643" height="165" as="geometry" />
        </mxCell>
        <mxCell id="o3hDj38cBojk7BIsD7he-11" value="" style="shape=mxgraph.cisco.routers.router;sketch=0;html=1;pointerEvents=1;dashed=0;fillColor=#036897;strokeColor=#ffffff;strokeWidth=2;verticalLabelPosition=bottom;verticalAlign=top;align=center;outlineConnect=0;" vertex="1" parent="1">
          <mxGeometry x="386" y="40" width="78" height="53" as="geometry" />
        </mxCell>
        <mxCell id="o3hDj38cBojk7BIsD7he-33" style="shape=connector;rounded=0;orthogonalLoop=1;jettySize=auto;html=1;exitX=0.5;exitY=1;exitDx=0;exitDy=0;exitPerimeter=0;strokeColor=default;align=center;verticalAlign=middle;fontFamily=Helvetica;fontSize=11;fontColor=default;labelBackgroundColor=default;startFill=0;endArrow=none;entryX=0.5;entryY=0;entryDx=0;entryDy=0;entryPerimeter=0;" edge="1" parent="1" source="o3hDj38cBojk7BIsD7he-12" target="o3hDj38cBojk7BIsD7he-14">
          <mxGeometry relative="1" as="geometry" />
        </mxCell>
        <mxCell id="o3hDj38cBojk7BIsD7he-12" value="" style="shape=mxgraph.cisco.routers.router;sketch=0;html=1;pointerEvents=1;dashed=0;fillColor=#036897;strokeColor=#ffffff;strokeWidth=2;verticalLabelPosition=bottom;verticalAlign=top;align=center;outlineConnect=0;" vertex="1" parent="1">
          <mxGeometry x="386" y="220" width="78" height="53" as="geometry" />
        </mxCell>
        <mxCell id="o3hDj38cBojk7BIsD7he-22" style="shape=connector;rounded=0;orthogonalLoop=1;jettySize=auto;html=1;exitX=0.5;exitY=1;exitDx=0;exitDy=0;exitPerimeter=0;strokeColor=default;align=center;verticalAlign=middle;fontFamily=Helvetica;fontSize=11;fontColor=default;labelBackgroundColor=default;startFill=0;endArrow=none;entryX=0.5;entryY=0;entryDx=0;entryDy=0;entryPerimeter=0;" edge="1" parent="1" source="o3hDj38cBojk7BIsD7he-13" target="o3hDj38cBojk7BIsD7he-15">
          <mxGeometry relative="1" as="geometry" />
        </mxCell>
        <mxCell id="o3hDj38cBojk7BIsD7he-13" value="" style="shape=mxgraph.cisco.routers.router;sketch=0;html=1;pointerEvents=1;dashed=0;fillColor=#036897;strokeColor=#ffffff;strokeWidth=2;verticalLabelPosition=bottom;verticalAlign=top;align=center;outlineConnect=0;" vertex="1" parent="1">
          <mxGeometry x="180" y="400" width="80" height="50" as="geometry" />
        </mxCell>
        <mxCell id="o3hDj38cBojk7BIsD7he-23" style="shape=connector;rounded=0;orthogonalLoop=1;jettySize=auto;html=1;exitX=0.5;exitY=1;exitDx=0;exitDy=0;exitPerimeter=0;strokeColor=default;align=center;verticalAlign=middle;fontFamily=Helvetica;fontSize=11;fontColor=default;labelBackgroundColor=default;startFill=0;endArrow=none;entryX=0.5;entryY=0;entryDx=0;entryDy=0;entryPerimeter=0;" edge="1" parent="1" source="o3hDj38cBojk7BIsD7he-14" target="o3hDj38cBojk7BIsD7he-15">
          <mxGeometry relative="1" as="geometry" />
        </mxCell>
        <mxCell id="o3hDj38cBojk7BIsD7he-14" value="" style="shape=mxgraph.cisco.routers.router;sketch=0;html=1;pointerEvents=1;dashed=0;fillColor=#036897;strokeColor=#ffffff;strokeWidth=2;verticalLabelPosition=bottom;verticalAlign=top;align=center;outlineConnect=0;" vertex="1" parent="1">
          <mxGeometry x="600" y="400" width="80" height="50" as="geometry" />
        </mxCell>
        <mxCell id="o3hDj38cBojk7BIsD7he-15" value="" style="shape=mxgraph.cisco.switches.workgroup_switch;sketch=0;html=1;pointerEvents=1;dashed=0;fillColor=#036897;strokeColor=#ffffff;strokeWidth=2;verticalLabelPosition=bottom;verticalAlign=top;align=center;outlineConnect=0;" vertex="1" parent="1">
          <mxGeometry x="380" y="600" width="100" height="50" as="geometry" />
        </mxCell>
        <mxCell id="o3hDj38cBojk7BIsD7he-16" value="" style="shape=mxgraph.cisco.computers_and_peripherals.pc;sketch=0;html=1;pointerEvents=1;dashed=0;fillColor=#036897;strokeColor=#ffffff;strokeWidth=2;verticalLabelPosition=bottom;verticalAlign=top;align=center;outlineConnect=0;" vertex="1" parent="1">
          <mxGeometry x="180" y="810" width="80" height="70" as="geometry" />
        </mxCell>
        <mxCell id="o3hDj38cBojk7BIsD7he-17" value="" style="shape=mxgraph.cisco.computers_and_peripherals.pc;sketch=0;html=1;pointerEvents=1;dashed=0;fillColor=#036897;strokeColor=#ffffff;strokeWidth=2;verticalLabelPosition=bottom;verticalAlign=top;align=center;outlineConnect=0;" vertex="1" parent="1">
          <mxGeometry x="580" y="810" width="80" height="70" as="geometry" />
        </mxCell>
        <mxCell id="o3hDj38cBojk7BIsD7he-18" style="edgeStyle=orthogonalEdgeStyle;rounded=0;orthogonalLoop=1;jettySize=auto;html=1;exitX=0.5;exitY=1;exitDx=0;exitDy=0;exitPerimeter=0;entryX=0.5;entryY=0;entryDx=0;entryDy=0;entryPerimeter=0;endArrow=none;startFill=0;" edge="1" parent="1" source="o3hDj38cBojk7BIsD7he-11" target="o3hDj38cBojk7BIsD7he-12">
          <mxGeometry relative="1" as="geometry" />
        </mxCell>
        <mxCell id="o3hDj38cBojk7BIsD7he-19" style="shape=connector;rounded=0;orthogonalLoop=1;jettySize=auto;html=1;exitX=0.5;exitY=1;exitDx=0;exitDy=0;exitPerimeter=0;entryX=0.5;entryY=0;entryDx=0;entryDy=0;entryPerimeter=0;strokeColor=default;align=center;verticalAlign=middle;fontFamily=Helvetica;fontSize=11;fontColor=default;labelBackgroundColor=default;startFill=0;endArrow=none;" edge="1" parent="1" source="o3hDj38cBojk7BIsD7he-12" target="o3hDj38cBojk7BIsD7he-13">
          <mxGeometry relative="1" as="geometry" />
        </mxCell>
        <mxCell id="o3hDj38cBojk7BIsD7he-24" style="shape=connector;rounded=0;orthogonalLoop=1;jettySize=auto;html=1;exitX=0.5;exitY=0.98;exitDx=0;exitDy=0;exitPerimeter=0;entryX=0.5;entryY=0;entryDx=0;entryDy=0;entryPerimeter=0;strokeColor=default;align=center;verticalAlign=middle;fontFamily=Helvetica;fontSize=11;fontColor=default;labelBackgroundColor=default;startFill=0;endArrow=none;" edge="1" parent="1" source="o3hDj38cBojk7BIsD7he-15" target="o3hDj38cBojk7BIsD7he-16">
          <mxGeometry relative="1" as="geometry" />
        </mxCell>
        <mxCell id="o3hDj38cBojk7BIsD7he-26" style="shape=connector;rounded=0;orthogonalLoop=1;jettySize=auto;html=1;exitX=0.5;exitY=0.98;exitDx=0;exitDy=0;exitPerimeter=0;entryX=0.5;entryY=0;entryDx=0;entryDy=0;entryPerimeter=0;strokeColor=default;align=center;verticalAlign=middle;fontFamily=Helvetica;fontSize=11;fontColor=default;labelBackgroundColor=default;startFill=0;endArrow=none;" edge="1" parent="1" source="o3hDj38cBojk7BIsD7he-15" target="o3hDj38cBojk7BIsD7he-17">
          <mxGeometry relative="1" as="geometry" />
        </mxCell>
        <mxCell id="o3hDj38cBojk7BIsD7he-27" value="&lt;font style=&quot;font-size: 14px;&quot;&gt;R1&lt;/font&gt;" style="text;strokeColor=none;align=center;fillColor=none;html=1;verticalAlign=middle;whiteSpace=wrap;rounded=0;fontFamily=Helvetica;fontSize=11;fontColor=default;labelBackgroundColor=default;" vertex="1" parent="1">
          <mxGeometry x="460" y="51.5" width="60" height="30" as="geometry" />
        </mxCell>
        <mxCell id="o3hDj38cBojk7BIsD7he-28" value="&lt;font style=&quot;font-size: 14px;&quot;&gt;R2&lt;/font&gt;" style="text;strokeColor=none;align=center;fillColor=none;html=1;verticalAlign=middle;whiteSpace=wrap;rounded=0;fontFamily=Helvetica;fontSize=11;fontColor=default;labelBackgroundColor=default;" vertex="1" parent="1">
          <mxGeometry x="460" y="231.5" width="60" height="30" as="geometry" />
        </mxCell>
        <mxCell id="o3hDj38cBojk7BIsD7he-34" value="&lt;font style=&quot;font-size: 14px;&quot;&gt;R3&lt;/font&gt;" style="text;strokeColor=none;align=center;fillColor=none;html=1;verticalAlign=middle;whiteSpace=wrap;rounded=0;fontFamily=Helvetica;fontSize=11;fontColor=default;labelBackgroundColor=default;" vertex="1" parent="1">
          <mxGeometry x="130" y="411.5" width="60" height="30" as="geometry" />
        </mxCell>
        <mxCell id="o3hDj38cBojk7BIsD7he-35" value="&lt;font style=&quot;font-size: 14px;&quot;&gt;R4&lt;/font&gt;" style="text;strokeColor=none;align=center;fillColor=none;html=1;verticalAlign=middle;whiteSpace=wrap;rounded=0;fontFamily=Helvetica;fontSize=11;fontColor=default;labelBackgroundColor=default;" vertex="1" parent="1">
          <mxGeometry x="670" y="411.5" width="60" height="30" as="geometry" />
        </mxCell>
        <mxCell id="o3hDj38cBojk7BIsD7he-36" value="&lt;font style=&quot;font-size: 14px;&quot;&gt;SW1&lt;/font&gt;" style="text;strokeColor=none;align=center;fillColor=none;html=1;verticalAlign=middle;whiteSpace=wrap;rounded=0;fontFamily=Helvetica;fontSize=11;fontColor=default;labelBackgroundColor=default;" vertex="1" parent="1">
          <mxGeometry x="476" y="610" width="60" height="30" as="geometry" />
        </mxCell>
        <mxCell id="o3hDj38cBojk7BIsD7he-37" value="&lt;font style=&quot;font-size: 14px;&quot;&gt;PC1&lt;/font&gt;" style="text;strokeColor=none;align=center;fillColor=none;html=1;verticalAlign=middle;whiteSpace=wrap;rounded=0;fontFamily=Helvetica;fontSize=11;fontColor=default;labelBackgroundColor=default;" vertex="1" parent="1">
          <mxGeometry x="130" y="820" width="60" height="30" as="geometry" />
        </mxCell>
        <mxCell id="o3hDj38cBojk7BIsD7he-38" value="&lt;font style=&quot;font-size: 14px;&quot;&gt;PC2&lt;/font&gt;" style="text;strokeColor=none;align=center;fillColor=none;html=1;verticalAlign=middle;whiteSpace=wrap;rounded=0;fontFamily=Helvetica;fontSize=11;fontColor=default;labelBackgroundColor=default;" vertex="1" parent="1">
          <mxGeometry x="658" y="820" width="60" height="30" as="geometry" />
        </mxCell>
        <mxCell id="o3hDj38cBojk7BIsD7he-39" value="203.0.113.0/30" style="text;strokeColor=none;align=center;fillColor=none;html=1;verticalAlign=middle;whiteSpace=wrap;rounded=0;fontFamily=Helvetica;fontSize=11;fontColor=default;labelBackgroundColor=default;rotation=-90;" vertex="1" parent="1">
          <mxGeometry x="404" y="140" width="60" height="30" as="geometry" />
        </mxCell>
        <mxCell id="o3hDj38cBojk7BIsD7he-42" value="10.0.0.0/30" style="text;strokeColor=none;align=center;fillColor=none;html=1;verticalAlign=middle;whiteSpace=wrap;rounded=0;fontFamily=Helvetica;fontSize=11;fontColor=default;labelBackgroundColor=default;rotation=-30;" vertex="1" parent="1">
          <mxGeometry x="270" y="320" width="60" height="30" as="geometry" />
        </mxCell>
        <mxCell id="o3hDj38cBojk7BIsD7he-45" value="10.0.1.0/30" style="text;strokeColor=none;align=center;fillColor=none;html=1;verticalAlign=middle;whiteSpace=wrap;rounded=0;fontFamily=Helvetica;fontSize=11;fontColor=default;labelBackgroundColor=default;rotation=30;" vertex="1" parent="1">
          <mxGeometry x="520" y="320" width="60" height="30" as="geometry" />
        </mxCell>
        <mxCell id="o3hDj38cBojk7BIsD7he-48" value="&lt;font style=&quot;font-size: 12px;&quot;&gt;HSRP 10 VIP 192.168.10.1&lt;/font&gt;" style="text;strokeColor=none;align=center;fillColor=none;html=1;verticalAlign=middle;whiteSpace=wrap;rounded=0;fontFamily=Helvetica;fontSize=11;fontColor=default;labelBackgroundColor=default;" vertex="1" parent="1">
          <mxGeometry x="349" y="465" width="170" height="30" as="geometry" />
        </mxCell>
        <mxCell id="o3hDj38cBojk7BIsD7he-49" value=".2" style="text;strokeColor=none;align=center;fillColor=none;html=1;verticalAlign=middle;whiteSpace=wrap;rounded=0;fontFamily=Helvetica;fontSize=11;fontColor=default;labelBackgroundColor=default;" vertex="1" parent="1">
          <mxGeometry x="180" y="450" width="60" height="30" as="geometry" />
        </mxCell>
        <mxCell id="o3hDj38cBojk7BIsD7he-53" value="OSPF Area 0" style="text;strokeColor=none;align=center;fillColor=none;html=1;verticalAlign=middle;whiteSpace=wrap;rounded=0;fontFamily=Helvetica;fontSize=11;fontColor=default;labelBackgroundColor=default;" vertex="1" parent="1">
          <mxGeometry x="380" y="330" width="80" height="30" as="geometry" />
        </mxCell>
        <mxCell id="o3hDj38cBojk7BIsD7he-56" value="static default 0.0.0.0/0 from R2 → R1" style="text;strokeColor=none;align=center;fillColor=none;html=1;verticalAlign=middle;whiteSpace=wrap;rounded=0;fontFamily=Helvetica;fontSize=11;fontColor=default;labelBackgroundColor=default;" vertex="1" parent="1">
          <mxGeometry x="450" y="140" width="190" height="30" as="geometry" />
        </mxCell>
        <mxCell id="o3hDj38cBojk7BIsD7he-57" value="NTP Master&lt;div&gt;DNS&lt;/div&gt;" style="text;strokeColor=none;align=center;fillColor=none;html=1;verticalAlign=middle;whiteSpace=wrap;rounded=0;fontFamily=Helvetica;fontSize=11;fontColor=default;labelBackgroundColor=default;" vertex="1" parent="1">
          <mxGeometry x="280" y="55" width="120" height="30" as="geometry" />
        </mxCell>
        <mxCell id="o3hDj38cBojk7BIsD7he-58" value="OSPF core + DHCP + default-information originate" style="text;strokeColor=none;align=center;fillColor=none;html=1;verticalAlign=middle;whiteSpace=wrap;rounded=0;fontFamily=Helvetica;fontSize=11;fontColor=default;labelBackgroundColor=default;" vertex="1" parent="1">
          <mxGeometry x="500" y="231.5" width="265.23" height="30" as="geometry" />
        </mxCell>
        <mxCell id="o3hDj38cBojk7BIsD7he-59" value="DHCP" style="text;strokeColor=none;align=center;fillColor=none;html=1;verticalAlign=middle;whiteSpace=wrap;rounded=0;fontFamily=Helvetica;fontSize=11;fontColor=default;labelBackgroundColor=default;" vertex="1" parent="1">
          <mxGeometry x="179.9992773437499" y="879.998482349537" width="60" height="30" as="geometry" />
        </mxCell>
        <mxCell id="o3hDj38cBojk7BIsD7he-60" value="DHCP" style="text;strokeColor=none;align=center;fillColor=none;html=1;verticalAlign=middle;whiteSpace=wrap;rounded=0;fontFamily=Helvetica;fontSize=11;fontColor=default;labelBackgroundColor=default;" vertex="1" parent="1">
          <mxGeometry x="582.9959440104165" y="880.0044082754628" width="60" height="30" as="geometry" />
        </mxCell>
        <mxCell id="o3hDj38cBojk7BIsD7he-61" value="&lt;div&gt;&lt;font style=&quot;font-size: 9px;&quot;&gt;• R1 = DNS + NTP master (no OSPF)&lt;/font&gt;&lt;/div&gt;&lt;div&gt;&lt;font style=&quot;font-size: 9px;&quot;&gt;• R2 = OSPF Area 0 core + DHCP + “default-information originate”&lt;/font&gt;&lt;/div&gt;&lt;div&gt;&lt;font style=&quot;font-size: 9px;&quot;&gt;&amp;nbsp; (R2 static 0.0.0.0/0 via R1)&lt;/font&gt;&lt;/div&gt;&lt;div&gt;&lt;font style=&quot;font-size: 9px;&quot;&gt;• R3/R4 = ABRs; HSRP G10 VIP 192.168.10.1&lt;/font&gt;&lt;/div&gt;&lt;div&gt;&lt;font style=&quot;font-size: 9px;&quot;&gt;&amp;nbsp; (R3 Active pri 110, R4 Standby pri 90)&lt;/font&gt;&lt;/div&gt;&lt;div&gt;&lt;font style=&quot;font-size: 9px;&quot;&gt;• Area 10 = totally stub&lt;/font&gt;&lt;/div&gt;&lt;div&gt;&lt;font style=&quot;font-size: 9px;&quot;&gt;• OSPF MD5 on both /30 uplinks&lt;/font&gt;&lt;/div&gt;&lt;div&gt;&lt;font style=&quot;font-size: 9px;&quot;&gt;• DHCP relay follows HSRP via EEM (only Active forwards)&lt;/font&gt;&lt;/div&gt;" style="text;strokeColor=none;align=center;fillColor=none;html=1;verticalAlign=middle;whiteSpace=wrap;rounded=0;fontFamily=Helvetica;fontSize=11;fontColor=default;labelBackgroundColor=default;" vertex="1" parent="1">
          <mxGeometry x="-44" y="146" width="378.07" height="40.89" as="geometry" />
        </mxCell>
      </root>
    </mxGraphModel>
  </diagram>
</mxfile>
